# xmcd
#
# Track frame offsets:
#	150
#	20332
#	40661
#	60077
#	80359
#	100416
#	119113
#	139158
#	159035
#	179729
#	196363
#
# Disc length: 2876 seconds
#
# Revision: 0
# Processed by: cddbd v1.5.1PL2 Copyright (c) Steve Scherf et al.
# Submitted via: audiograbber 1.83.01
#
DISCID=8b0b3a0b
DTITLE=Tonny Tún Tún - Afrodiasíaco
DYEAR=2004
DGENRE=Merengue
TTITLE0=La paga
TTITLE1=Solo una noche
TTITLE2=Por qué sin tí
TTITLE3=Dile a el
TTITLE4=Sábado en la noche
TTITLE5=Solo doy cariño
TTITLE6=Eres una bendición
TTITLE7=Si pudiera cambiar tu vida
TTITLE8=No te pongas brava
TTITLE9=Solo una noche (Bounce)
TTITLE10=Me haces tanta falta
EXTD=YEAR: 2004
EXTT0=
EXTT1=
EXTT2=
EXTT3=
EXTT4=
EXTT5=
EXTT6=
EXTT7=
EXTT8=
EXTT9=
EXTT10=
PLAYORDER=
